<svg width="26" height="25" viewBox="0 0 26 25" fill="none" xmlns="http://www.w3.org/2000/svg">
                    <rect x="0.368164" width="24.9636" height="24.9636" rx="7.86125" fill="white"/>
                    <path d="M17.4012 8.39048C18.8722 10.5685 19.5986 13.0253 19.3271 15.8535C19.3259 15.8655 19.3197 15.8765 19.31 15.8837C18.196 16.7074 17.1168 17.2074 16.0527 17.5389C16.0444 17.5414 16.0355 17.5413 16.0273 17.5385C16.0191 17.5357 16.012 17.5304 16.007 17.5233C15.7611 17.1788 15.5377 16.8157 15.3421 16.4343C15.3308 16.4118 15.3411 16.3848 15.3642 16.3759C15.7189 16.2413 16.0563 16.08 16.3808 15.889C16.4063 15.8739 16.4079 15.837 16.3843 15.8193C16.3155 15.7678 16.2473 15.7137 16.182 15.6596C16.1698 15.6496 16.1533 15.6476 16.1395 15.6543C14.0329 16.634 11.7253 16.634 9.59387 15.6543C9.58003 15.6481 9.56359 15.6502 9.5517 15.6601C9.48658 15.7142 9.4182 15.7678 9.34999 15.8193C9.32638 15.837 9.32833 15.8739 9.35406 15.889C9.67853 16.0764 10.0159 16.2413 10.3701 16.3766C10.3931 16.3854 10.404 16.4118 10.3926 16.4343C10.2011 16.8161 9.97777 17.1793 9.72737 17.5238C9.71646 17.5377 9.69855 17.5441 9.68162 17.5389C8.62257 17.2074 7.54333 16.7074 6.42941 15.8837C6.42013 15.8765 6.41346 15.865 6.41248 15.8531C6.18553 13.4066 6.64806 10.9295 8.33652 8.38999C8.34059 8.38327 8.34678 8.37802 8.35394 8.3749C9.18474 7.99091 10.0748 7.70841 11.0051 7.54708C11.022 7.54445 11.0389 7.55232 11.0477 7.56741C11.1627 7.77236 11.2941 8.03518 11.3829 8.24997C12.3635 8.09913 13.3594 8.09913 14.3605 8.24997C14.4494 8.03977 14.5762 7.77236 14.6907 7.56741C14.6947 7.55993 14.7011 7.55393 14.7087 7.55028C14.7164 7.54663 14.725 7.54551 14.7333 7.54708C15.6641 7.7089 16.5541 7.99141 17.3843 8.3749C17.3916 8.37802 17.3976 8.38327 17.4012 8.39048ZM11.8815 13.042C11.8917 12.3188 11.3681 11.7203 10.7109 11.7203C10.059 11.7203 9.54047 12.3135 9.54047 13.042C9.54047 13.7703 10.0693 14.3635 10.7109 14.3635C11.3629 14.3635 11.8815 13.7703 11.8815 13.042ZM16.2092 13.042C16.2194 12.3188 15.6958 11.7203 15.0387 11.7203C14.3867 11.7203 13.8682 12.3135 13.8682 13.042C13.8682 13.7703 14.397 14.3635 15.0387 14.3635C15.6958 14.3635 16.2092 13.7703 16.2092 13.042Z" fill="black"/>
                    </svg>