<svg width="25" height="25" viewBox="0 0 25 25" fill="none" xmlns="http://www.w3.org/2000/svg">
<rect y="0.0366211" width="24.9636" height="24.9636" rx="7.86125" fill="white"/>
<path d="M18.6774 8.56616C18.2653 8.7437 17.8319 8.86734 17.3882 8.934C17.5956 8.89841 17.9009 8.52462 18.0224 8.37333C18.207 8.14512 18.3477 7.8846 18.4374 7.60501C18.4374 7.58424 18.4581 7.55458 18.4374 7.53974C18.4269 7.53403 18.4152 7.53104 18.4033 7.53104C18.3914 7.53104 18.3796 7.53403 18.3692 7.53974C17.8873 7.80092 17.3745 8.00026 16.8428 8.13305C16.8243 8.13871 16.8045 8.13922 16.7857 8.13452C16.7669 8.12981 16.7498 8.12007 16.7361 8.10635C16.6947 8.05702 16.6502 8.01045 16.6027 7.96692C16.3859 7.77245 16.1398 7.61329 15.8736 7.49525C15.5143 7.34768 15.1261 7.28378 14.7384 7.30836C14.3623 7.33213 13.9951 7.43311 13.6596 7.60501C13.3292 7.78624 13.0389 8.03245 12.806 8.32884C12.561 8.6339 12.3842 8.98793 12.2873 9.36711C12.2075 9.7278 12.1984 10.1006 12.2606 10.4647C12.2606 10.527 12.2606 10.5359 12.2073 10.527C10.0941 10.2155 8.36018 9.46501 6.94345 7.85419C6.88121 7.783 6.84861 7.783 6.79822 7.85419C6.18174 8.79161 6.48109 10.2749 7.25169 11.0076C7.35543 11.1055 7.46213 11.2004 7.57476 11.2894C7.22144 11.2643 6.87675 11.1685 6.56111 11.0076C6.50183 10.969 6.46923 10.9898 6.46627 11.061C6.45787 11.1597 6.45787 11.2589 6.46627 11.3576C6.52811 11.8307 6.71437 12.2788 7.00599 12.6562C7.29761 13.0335 7.68414 13.3266 8.12604 13.5054C8.23376 13.5516 8.34601 13.5864 8.46096 13.6092C8.13387 13.6737 7.7984 13.6837 7.46806 13.6389C7.39692 13.6241 7.37025 13.6626 7.39692 13.7309C7.83261 14.9175 8.77809 15.2794 9.47164 15.4811C9.56648 15.4959 9.66133 15.4959 9.76803 15.5197C9.76803 15.5197 9.76803 15.5197 9.75024 15.5375C9.54573 15.9112 8.71881 16.1634 8.33944 16.2939C7.64698 16.5429 6.90869 16.638 6.17581 16.5728C6.06022 16.555 6.03354 16.5579 6.0039 16.5728C5.97426 16.5876 6.0039 16.6202 6.03651 16.6499C6.1847 16.7478 6.33289 16.8338 6.48701 16.9169C6.94584 17.1674 7.4309 17.3663 7.93339 17.5102C10.5357 18.2281 13.464 17.7 15.4172 15.757C16.9525 14.2322 17.4919 12.1289 17.4919 10.0227C17.4919 9.94262 17.5897 9.89515 17.646 9.85362C18.0344 9.55071 18.3769 9.19298 18.6626 8.79161C18.7121 8.73178 18.7375 8.6556 18.7338 8.57802V8.57802C18.7338 8.53352 18.7338 8.54242 18.6774 8.56616Z" fill="black"/>
</svg>
